<svg width="150" height="45" viewBox="0 0 150 45" fill="none" xmlns="http://www.w3.org/2000/svg">
<rect width="150" height="45" rx="22.5" fill="#8E43E7"/>
<path d="M64.6958 15.28H67.3758V28.58H64.6958V15.28ZM55.0358 31.34H67.8358V33.46H55.0358V31.34ZM55.0358 27.24H57.6958V32.2H55.0358V27.24ZM57.2958 16.44C60.1358 16.44 62.3158 18.4 62.3158 21.14C62.3158 23.86 60.1358 25.84 57.2958 25.84C54.4558 25.84 52.2558 23.86 52.2558 21.14C52.2558 18.4 54.4558 16.44 57.2958 16.44ZM57.2958 18.74C55.9158 18.74 54.8558 19.62 54.8558 21.14C54.8558 22.64 55.9158 23.52 57.2958 23.52C58.6558 23.52 59.7158 22.64 59.7158 21.14C59.7158 19.62 58.6558 18.74 57.2958 18.74ZM83.2742 15.24H85.9142V33.82H83.2742V15.24ZM80.0942 21.76H83.5742V23.92H80.0942V21.76ZM71.2142 27.48H72.6942C75.7542 27.48 78.0342 27.44 80.6542 27.02L80.8942 29.14C78.2142 29.56 75.8142 29.64 72.6942 29.64H71.2142V27.48ZM71.2142 16.8H79.7942V18.96H73.8542V28.16H71.2142V16.8ZM73.2542 21.96H79.1542V24.04H73.2542V21.96ZM89.0127 16.96H99.2327V19.08H89.0127V16.96ZM88.8127 29.56L88.5327 27.38C91.7527 27.38 96.1127 27.34 99.7727 26.88L99.9127 28.82C96.1727 29.48 91.9727 29.56 88.8127 29.56ZM90.5927 18.62H93.1727V27.96H90.5927V18.62ZM95.0727 18.62H97.6527V27.96H95.0727V18.62ZM100.613 15.26H103.293V33.78H100.613V15.26ZM102.693 22.28H105.973V24.46H102.693V22.28ZM109.071 16.88H120.731V19H109.071V16.88ZM107.191 29.42H123.931V31.6H107.191V29.42ZM119.611 16.88H122.231V19.02C122.231 21.72 122.231 24.28 121.371 28.32L118.751 28.08C119.611 24.34 119.611 21.64 119.611 19.02V16.88ZM120.171 21.96V23.92L108.851 24.48L108.531 22.34L120.171 21.96Z" fill="white"/>
<path d="M34.1249 25.0942C33.4781 23.9673 33.1921 22.8404 33.233 21.6556C33.2772 20.4232 33.7947 18.7414 34.5403 18.1763C34.6731 18.0775 34.8365 17.9856 35.0884 17.9856C35.2007 17.9856 35.3267 18.0026 35.4765 18.0469C35.8544 18.1558 36.0587 18.3601 36.1846 18.7516C36.5625 19.95 35.9361 22.6259 34.5539 25.0908C34.4586 25.261 34.2203 25.2644 34.1249 25.0976V25.0942ZM35.9259 11.6465C36.4842 11.6465 36.9404 12.1163 36.9404 12.695C36.9404 13.2738 36.4876 13.7436 35.9259 13.7436C35.3642 13.7436 34.9148 13.2738 34.9148 12.695C34.9148 12.1163 35.3676 11.6465 35.9259 11.6465ZM39.8615 33.5951H39.504C39.3814 33.5951 39.2759 33.5032 39.2589 33.3773C39.041 31.7669 38.2035 29.7821 36.297 27.7565C36.1744 27.6305 36.1506 27.4296 36.2459 27.2798C37.9175 24.6107 39.4632 20.6002 38.6222 17.9311C38.4078 17.2434 38.0503 16.6817 37.5737 16.2561C37.4783 16.171 37.4954 16.0144 37.6043 15.9531C38.8027 15.2961 39.5993 13.9479 39.4938 12.4227C39.361 10.6013 37.9243 9.13056 36.1642 9.008C34.0875 8.86841 32.3546 10.5741 32.3546 12.6916C32.3546 13.7811 32.8108 14.7616 33.5394 15.4357C33.6313 15.5208 33.6143 15.6774 33.5019 15.7352C33.3419 15.8238 33.1819 15.9225 33.0321 16.0382C31.2856 17.3592 30.7273 20.127 30.6762 21.5535C30.6524 22.1901 30.6966 22.8132 30.8056 23.4294C31.0235 24.6584 31.5103 25.85 32.2729 27.0109C32.5044 27.3615 32.7631 27.6952 33.0423 28.0084L34.4586 29.6085C35.8919 31.2665 36.6647 32.8938 36.7736 34.3884C36.7804 34.4429 36.7838 34.4973 36.7872 34.5552C36.8281 35.4982 37.5771 36.237 38.4895 36.237H39.8955C40.6105 36.237 41.1858 35.631 41.1756 34.8888C41.162 34.1603 40.5594 33.5917 39.8547 33.5917L39.8615 33.5951Z" fill="white"/>
<path d="M31.2933 29.0752C31.2558 29.0207 31.1809 29.0071 31.1265 29.0446C29.0463 30.3961 27.5007 29.6097 26.8402 29.3918C26.0027 29.1127 25.104 29.5314 24.7533 30.3689L24.1064 31.9145C23.8239 32.5852 24.1235 33.3614 24.7737 33.6542C25.4206 33.9436 26.173 33.6372 26.4555 32.9665L26.7347 32.2992C26.7824 32.1869 26.8947 32.1256 27.0105 32.1495C28.3757 32.4286 30.3673 32.7793 32.7368 31.1247C32.7981 31.0804 32.8083 30.9885 32.7572 30.9341C32.5325 30.6787 32.3112 30.4132 32.0899 30.1374C31.8108 29.7833 31.5452 29.4327 31.2933 29.0786V29.0752Z" fill="white"/>
</svg>
